<mxfile host="app.diagrams.net" agent="Mozilla/5.0 (X11; Ubuntu; Linux x86_64; rv:128.0) Gecko/20100101 Firefox/128.0" version="24.7.6">
  <diagram name="Page-1" id="vmvR3XIGJkem8xgLWlhe">
    <mxGraphModel dx="1826" dy="800" grid="1" gridSize="10" guides="1" tooltips="1" connect="1" arrows="1" fold="1" page="1" pageScale="1" pageWidth="850" pageHeight="1100" math="0" shadow="0">
      <root>
        <mxCell id="0" />
        <mxCell id="1" parent="0" />
        <mxCell id="bVMmN0nAPsnXtXHBvSzf-1" value="" style="rounded=0;whiteSpace=wrap;html=1;" parent="1" vertex="1">
          <mxGeometry x="250.5" y="168" width="260" height="370" as="geometry" />
        </mxCell>
        <mxCell id="bVMmN0nAPsnXtXHBvSzf-2" value="Slim" style="rounded=0;whiteSpace=wrap;html=1;" parent="1" vertex="1">
          <mxGeometry x="257.5" y="178" width="245" height="60" as="geometry" />
        </mxCell>
        <mxCell id="bVMmN0nAPsnXtXHBvSzf-3" value="" style="rounded=0;whiteSpace=wrap;html=1;" parent="1" vertex="1">
          <mxGeometry x="258.5" y="248" width="245" height="60" as="geometry" />
        </mxCell>
        <mxCell id="bVMmN0nAPsnXtXHBvSzf-4" value="" style="rounded=0;whiteSpace=wrap;html=1;" parent="1" vertex="1">
          <mxGeometry x="258.5" y="318" width="245" height="60" as="geometry" />
        </mxCell>
        <mxCell id="bVMmN0nAPsnXtXHBvSzf-5" value="" style="rounded=0;whiteSpace=wrap;html=1;" parent="1" vertex="1">
          <mxGeometry x="258.5" y="388" width="245" height="60" as="geometry" />
        </mxCell>
        <mxCell id="bVMmN0nAPsnXtXHBvSzf-6" value="" style="rounded=0;whiteSpace=wrap;html=1;" parent="1" vertex="1">
          <mxGeometry x="258.5" y="458" width="245" height="60" as="geometry" />
        </mxCell>
        <mxCell id="bVMmN0nAPsnXtXHBvSzf-7" value="" style="rounded=0;whiteSpace=wrap;html=1;" parent="1" vertex="1">
          <mxGeometry x="535.5" y="168" width="260" height="370" as="geometry" />
        </mxCell>
        <mxCell id="bVMmN0nAPsnXtXHBvSzf-8" value="Box" style="rounded=0;whiteSpace=wrap;html=1;" parent="1" vertex="1">
          <mxGeometry x="542.5" y="178" width="123" height="60" as="geometry" />
        </mxCell>
        <mxCell id="bVMmN0nAPsnXtXHBvSzf-9" value="" style="rounded=0;whiteSpace=wrap;html=1;" parent="1" vertex="1">
          <mxGeometry x="665.5" y="178" width="123" height="60" as="geometry" />
        </mxCell>
        <mxCell id="bVMmN0nAPsnXtXHBvSzf-10" value="" style="rounded=0;whiteSpace=wrap;html=1;" parent="1" vertex="1">
          <mxGeometry x="542.5" y="248" width="123" height="60" as="geometry" />
        </mxCell>
        <mxCell id="bVMmN0nAPsnXtXHBvSzf-11" value="" style="rounded=0;whiteSpace=wrap;html=1;" parent="1" vertex="1">
          <mxGeometry x="665.5" y="248" width="123" height="60" as="geometry" />
        </mxCell>
        <mxCell id="bVMmN0nAPsnXtXHBvSzf-12" value="" style="rounded=0;whiteSpace=wrap;html=1;" parent="1" vertex="1">
          <mxGeometry x="542.5" y="318" width="123" height="60" as="geometry" />
        </mxCell>
        <mxCell id="bVMmN0nAPsnXtXHBvSzf-13" value="" style="rounded=0;whiteSpace=wrap;html=1;" parent="1" vertex="1">
          <mxGeometry x="665.5" y="318" width="123" height="60" as="geometry" />
        </mxCell>
        <mxCell id="bVMmN0nAPsnXtXHBvSzf-14" value="" style="rounded=0;whiteSpace=wrap;html=1;" parent="1" vertex="1">
          <mxGeometry x="542.5" y="388" width="123" height="60" as="geometry" />
        </mxCell>
        <mxCell id="bVMmN0nAPsnXtXHBvSzf-15" value="" style="rounded=0;whiteSpace=wrap;html=1;" parent="1" vertex="1">
          <mxGeometry x="665.5" y="388" width="123" height="60" as="geometry" />
        </mxCell>
        <mxCell id="bVMmN0nAPsnXtXHBvSzf-16" value="" style="rounded=0;whiteSpace=wrap;html=1;" parent="1" vertex="1">
          <mxGeometry x="542.5" y="458" width="123" height="60" as="geometry" />
        </mxCell>
        <mxCell id="bVMmN0nAPsnXtXHBvSzf-17" value="" style="rounded=0;whiteSpace=wrap;html=1;" parent="1" vertex="1">
          <mxGeometry x="665.5" y="458" width="123" height="60" as="geometry" />
        </mxCell>
        <mxCell id="bVMmN0nAPsnXtXHBvSzf-18" value="" style="rounded=0;whiteSpace=wrap;html=1;" parent="1" vertex="1">
          <mxGeometry x="825.5" y="168" width="260" height="370" as="geometry" />
        </mxCell>
        <mxCell id="bVMmN0nAPsnXtXHBvSzf-19" value="Box Open" style="rounded=0;whiteSpace=wrap;html=1;" parent="1" vertex="1">
          <mxGeometry x="832.5" y="178" width="123" height="60" as="geometry" />
        </mxCell>
        <mxCell id="bVMmN0nAPsnXtXHBvSzf-20" value="" style="rounded=0;whiteSpace=wrap;html=1;" parent="1" vertex="1">
          <mxGeometry x="955.5" y="178" width="123" height="60" as="geometry" />
        </mxCell>
        <mxCell id="bVMmN0nAPsnXtXHBvSzf-21" value="" style="rounded=0;whiteSpace=wrap;html=1;" parent="1" vertex="1">
          <mxGeometry x="832.5" y="248" width="123" height="60" as="geometry" />
        </mxCell>
        <mxCell id="bVMmN0nAPsnXtXHBvSzf-22" value="" style="rounded=0;whiteSpace=wrap;html=1;" parent="1" vertex="1">
          <mxGeometry x="832.5" y="318" width="123" height="60" as="geometry" />
        </mxCell>
        <mxCell id="bVMmN0nAPsnXtXHBvSzf-23" value="" style="rounded=0;whiteSpace=wrap;html=1;" parent="1" vertex="1">
          <mxGeometry x="832.5" y="388" width="123" height="60" as="geometry" />
        </mxCell>
        <mxCell id="bVMmN0nAPsnXtXHBvSzf-24" value="" style="rounded=0;whiteSpace=wrap;html=1;" parent="1" vertex="1">
          <mxGeometry x="955.5" y="248" width="123" height="200" as="geometry" />
        </mxCell>
        <mxCell id="bVMmN0nAPsnXtXHBvSzf-25" value="" style="rounded=0;whiteSpace=wrap;html=1;" parent="1" vertex="1">
          <mxGeometry x="832.5" y="458" width="123" height="60" as="geometry" />
        </mxCell>
        <mxCell id="bVMmN0nAPsnXtXHBvSzf-26" value="" style="rounded=0;whiteSpace=wrap;html=1;" parent="1" vertex="1">
          <mxGeometry x="955.5" y="458" width="123" height="60" as="geometry" />
        </mxCell>
        <mxCell id="bVMmN0nAPsnXtXHBvSzf-27" value="" style="rounded=0;whiteSpace=wrap;html=1;" parent="1" vertex="1">
          <mxGeometry x="250" y="563" width="260" height="370" as="geometry" />
        </mxCell>
        <mxCell id="bVMmN0nAPsnXtXHBvSzf-28" value="Tripple Fall" style="rounded=0;whiteSpace=wrap;html=1;" parent="1" vertex="1">
          <mxGeometry x="257" y="573" width="73" height="347" as="geometry" />
        </mxCell>
        <mxCell id="bVMmN0nAPsnXtXHBvSzf-38" value="" style="rounded=0;whiteSpace=wrap;html=1;" parent="1" vertex="1">
          <mxGeometry x="825.5" y="563" width="260" height="370" as="geometry" />
        </mxCell>
        <mxCell id="bVMmN0nAPsnXtXHBvSzf-39" value="Header Body" style="rounded=0;whiteSpace=wrap;html=1;" parent="1" vertex="1">
          <mxGeometry x="832.5" y="573" width="247.5" height="60" as="geometry" />
        </mxCell>
        <mxCell id="bVMmN0nAPsnXtXHBvSzf-40" value="" style="rounded=0;whiteSpace=wrap;html=1;" parent="1" vertex="1">
          <mxGeometry x="835.5" y="643" width="243" height="270" as="geometry" />
        </mxCell>
        <mxCell id="bVMmN0nAPsnXtXHBvSzf-41" value="" style="rounded=0;whiteSpace=wrap;html=1;" parent="1" vertex="1">
          <mxGeometry x="1110.5" y="168" width="260" height="370" as="geometry" />
        </mxCell>
        <mxCell id="bVMmN0nAPsnXtXHBvSzf-42" value="Slim Box" style="rounded=0;whiteSpace=wrap;html=1;" parent="1" vertex="1">
          <mxGeometry x="1117.5" y="178" width="247.5" height="60" as="geometry" />
        </mxCell>
        <mxCell id="bVMmN0nAPsnXtXHBvSzf-43" value="" style="rounded=0;whiteSpace=wrap;html=1;" parent="1" vertex="1">
          <mxGeometry x="1117.5" y="248" width="123" height="60" as="geometry" />
        </mxCell>
        <mxCell id="bVMmN0nAPsnXtXHBvSzf-44" value="" style="rounded=0;whiteSpace=wrap;html=1;" parent="1" vertex="1">
          <mxGeometry x="1117.5" y="318" width="123" height="60" as="geometry" />
        </mxCell>
        <mxCell id="bVMmN0nAPsnXtXHBvSzf-45" value="" style="rounded=0;whiteSpace=wrap;html=1;" parent="1" vertex="1">
          <mxGeometry x="1117.5" y="388" width="123" height="60" as="geometry" />
        </mxCell>
        <mxCell id="bVMmN0nAPsnXtXHBvSzf-46" value="" style="rounded=0;whiteSpace=wrap;html=1;" parent="1" vertex="1">
          <mxGeometry x="1240.5" y="248" width="123" height="200" as="geometry" />
        </mxCell>
        <mxCell id="bVMmN0nAPsnXtXHBvSzf-47" value="" style="rounded=0;whiteSpace=wrap;html=1;" parent="1" vertex="1">
          <mxGeometry x="1117.5" y="458" width="247.5" height="60" as="geometry" />
        </mxCell>
        <mxCell id="bVMmN0nAPsnXtXHBvSzf-48" value="" style="rounded=0;whiteSpace=wrap;html=1;" parent="1" vertex="1">
          <mxGeometry x="1110.5" y="563" width="260" height="370" as="geometry" />
        </mxCell>
        <mxCell id="bVMmN0nAPsnXtXHBvSzf-49" value="Big Burger" style="rounded=0;whiteSpace=wrap;html=1;" parent="1" vertex="1">
          <mxGeometry x="1117.5" y="573" width="247.5" height="60" as="geometry" />
        </mxCell>
        <mxCell id="bVMmN0nAPsnXtXHBvSzf-50" value="" style="rounded=0;whiteSpace=wrap;html=1;" parent="1" vertex="1">
          <mxGeometry x="1120.5" y="643" width="243" height="200" as="geometry" />
        </mxCell>
        <mxCell id="bVMmN0nAPsnXtXHBvSzf-51" value="" style="rounded=0;whiteSpace=wrap;html=1;" parent="1" vertex="1">
          <mxGeometry x="1117.5" y="853" width="247.5" height="60" as="geometry" />
        </mxCell>
        <mxCell id="bVMmN0nAPsnXtXHBvSzf-52" value="" style="rounded=0;whiteSpace=wrap;html=1;" parent="1" vertex="1">
          <mxGeometry x="535.5" y="563" width="260" height="370" as="geometry" />
        </mxCell>
        <mxCell id="bVMmN0nAPsnXtXHBvSzf-53" value="Free" style="rounded=0;whiteSpace=wrap;html=1;" parent="1" vertex="1">
          <mxGeometry x="542.5" y="571" width="247.5" height="355" as="geometry" />
        </mxCell>
        <mxCell id="bVMmN0nAPsnXtXHBvSzf-55" value="Tripple Fall" style="rounded=0;whiteSpace=wrap;html=1;" parent="1" vertex="1">
          <mxGeometry x="346" y="573" width="70" height="347" as="geometry" />
        </mxCell>
        <mxCell id="bVMmN0nAPsnXtXHBvSzf-56" value="Tripple Fall" style="rounded=0;whiteSpace=wrap;html=1;" parent="1" vertex="1">
          <mxGeometry x="432.5" y="573" width="70" height="347" as="geometry" />
        </mxCell>
      </root>
    </mxGraphModel>
  </diagram>
</mxfile>
